<svg xmlns="http://www.w3.org/2000/svg" viewBox="0 0 496 512">
  <path d="M248 8C111 8 0 119 0 256s111 248 248 248 248-111 248-248S385 8 248 8zm114.5 364.2c-4.7 7.8-14.8 10.3-22.6 5.6-62-38-140-46.6-231.6-25.6-8.9 2-17.8-3.6-19.8-12.5-2-8.9 3.6-17.8 12.5-19.8 100.5-23 186.6-13.3 256.2 29.5 7.8 4.7 10.3 14.8 5.6 22.6zm32.2-71.6c-5.9 9.6-18.4 12.6-28 6.7-71-43.7-179.2-56.4-263.2-30.9-10.7 3.2-22-2.8-25.2-13.5-3.2-10.7 2.8-22 13.5-25.2 96-29.1 215.2-15 297.7 35.8 9.6 5.9 12.6 18.4 6.7 28zm2.8-74.6c-85-50.5-225.4-55.2-306.6-30.6-12.8 3.9-26.4-3.4-30.3-16.2-3.9-12.8 3.4-26.4 16.2-30.3 93.4-28.4 249-22.9 347.4 36.1 11.5 6.8 15.2 21.7 8.4 33.2-6.8 11.5-21.7 15.2-33.2 8.4z"/>
</svg>
