<svg xmlns="http://www.w3.org/2000/svg" viewBox="0 0 168 168" width="100" height="100">
  <circle cx="84" cy="84" r="84" fill="white"/>
  <path d="M120.4 121.1c-1.8 3-5.7 3.9-8.7 2.1-24-14.7-54.1-18-89.6-9.9-3.4.8-6.7-1.4-7.5-4.8-.8-3.4 1.4-6.7 4.8-7.5 38.7-8.7 71.8-4.9 98.6 11.2 3 1.8 3.9 5.7 2.4 8.9zm12.6-22.5c-2.3 3.7-7.1 4.9-10.8 2.6-27.5-16.9-69.4-21.8-101.8-11.8-4.1 1.2-8.5-1.1-9.7-5.2-1.2-4.1 1.1-8.5 5.2-9.7 37.2-11.3 83.4-5.7 115.2 13.6 3.7 2.3 4.9 7.1 1.9 10.5zm1.1-23.5c-29.8-17.7-81.5-19.4-112.8-9.7-4.9 1.5-10-1.3-11.5-6.2-1.5-4.9 1.3-10 6.2-11.5 36.4-11 93.4-9.1 127.9 11.7 4.4 2.6 5.8 8.3 3.2 12.7-2.6 4.4-8.3 5.8-12.7 3z" fill="black"/>
</svg>
